<?xml version="1.0" standalone="no"?><!DOCTYPE svg PUBLIC "-//W3C//DTD SVG 1.1//EN" "http://www.w3.org/Graphics/SVG/1.1/DTD/svg11.dtd"><svg t="1502855278300" class="icon" style="" viewBox="0 0 1024 1024" version="1.1" xmlns="http://www.w3.org/2000/svg" p-id="1914" xmlns:xlink="http://www.w3.org/1999/xlink" width="200" height="200"><defs><style type="text/css"></style></defs><path d="M255.573333 892.672L132.416 568.597333c-12.096-31.786667 1.472-70.144 30.549333-86.677333L213.333333 453.290667v-177.834667c0-35.392 28.544-64 64-64 11.754667 0 21.333333-9.578667 21.333334-21.354667V149.333333A63.957333 63.957333 0 0 1 362.56 85.333333h298.88A64 64 0 0 1 725.333333 149.376V190.08a21.248 21.248 0 0 0 21.333334 21.354667c35.392 0 64 28.544 64 64v177.813333l50.368 28.650667c29.205333 16.597333 42.645333 54.890667 30.506666 86.826666l-101.376 266.752c40.192-8.597333 76.48-0.938667 107.52 18.474667 13.098667 8.170667 22.250667 16.533333 27.477334 22.72a21.333333 21.333333 0 0 1-32.597334 27.52c-2.56-3.029333-8.512-8.448-17.493333-14.08-34.218667-21.376-76.693333-22.933333-129.621333 9.898667-68.266667 42.325333-136.661333 44.458667-197.184 22.549333-14.016-5.077333-24.32-10.282667-30.357334-14.058667l-2.048-1.472c-3.477333-2.773333-11.050667-7.616-22.144-12.629333-45.525333-20.522667-98.837333-20.522667-157.994666 14.4-69.994667 41.322667-140.010667 33.365333-202.496-4.288-19.413333-11.733333-33.642667-23.509333-41.813334-31.829333a21.333333 21.333333 0 0 1 30.506667-29.866667c1.237333 1.28 4.053333 3.904 8.298667 7.424 7.253333 6.016 15.658667 12.074667 25.024 17.706667 32.213333 19.413333 65.877333 28.906667 100.330666 24.704z m40.426667-11.306667c5.994667-2.645333 12.010667-5.738667 18.048-9.28 71.914667-42.453333 139.733333-42.453333 197.205333-16.554666 13.738667 6.186667 23.914667 12.522667 30.186667 17.365333 3.882667 2.304 11.178667 5.888 21.333333 9.557333 49.152 17.792 104.106667 16.085333 160.192-18.688 5.056-3.136 10.048-6.016 15.018667-8.661333l114.709333-301.824c4.586667-12.096-0.938667-27.84-11.904-34.069333l-302.592-172.032a35.669333 35.669333 0 0 0-4.864-2.282667V661.333333h-42.666666V344.917333a35.690667 35.690667 0 0 0-4.864 2.261334L183.210667 519.210667c-10.88 6.186667-16.469333 22.016-11.946667 33.92l124.736 328.234666zM256 429.034667l209.557333-119.146667c26.325333-14.976 66.602667-14.933333 92.885334 0L768 429.013333v-153.557333c0-11.882667-9.472-21.333333-21.333333-21.333333-35.477333 0-64-28.629333-64-64.021334V149.333333A21.333333 21.333333 0 0 0 661.44 128h-298.88A21.290667 21.290667 0 0 0 341.333333 149.376V190.08a64.042667 64.042667 0 0 1-64 64.021333c-11.882667 0-21.333333 9.493333-21.333333 21.333334v153.578666z" fill="currentColor" p-id="1915"></path></svg>