<?xml version="1.0" standalone="no"?><!DOCTYPE svg PUBLIC "-//W3C//DTD SVG 1.1//EN" "http://www.w3.org/Graphics/SVG/1.1/DTD/svg11.dtd"><svg t="1502862700234" class="icon" style="" viewBox="0 0 1024 1024" version="1.1" xmlns="http://www.w3.org/2000/svg" p-id="2996" xmlns:xlink="http://www.w3.org/1999/xlink" width="200" height="200"><defs><style type="text/css"></style></defs><path d="M972.736 502.698667L512.704 42.666667 52.672 502.698667a21.269333 21.269333 0 0 0 0.085333 30.101333l1.493334 1.493333a21.184 21.184 0 0 0 30.101333 0.085334l428.352-428.373334 428.373333 428.352a21.248 21.248 0 0 0 30.101334-0.085333l1.493333-1.493333a21.269333 21.269333 0 0 0 0.064-30.08z" fill="currentColor" p-id="2997"></path><path d="M848.341333 533.333333a21.333333 21.333333 0 0 0-21.269333 21.482667v322.026667c0 52.437333-26.474667 61.781333-45.290667 61.781333h-146.752V718.506667c0-24.064 0-57.173333-43.029333-57.173334h-170.24c-42.709333 0-42.709333 32.298667-42.709333 57.173334v220.117333h-148.522667c-42.666667 0-43.477333-61.781333-43.477333-61.781333V554.816a21.354667 21.354667 0 1 0-42.666667-0.234667v353.941334C144.341333 971.861333 211.946667 981.333333 211.946667 981.333333h209.728V704h170.666666v277.333333H813.653333c37.866667 0 55.957333-42.709333 55.957334-72.810666V554.581333a21.205333 21.205333 0 0 0-21.269334-21.248z" fill="currentColor" p-id="2998"></path></svg>